#!OML:ASF G:\JayActor3\Patient Classification 1\Patient 1\Session 6\male.ASF
:FULLY-SPECIFIED
:DEGREES
672
root 2.62852 16.0341 1.97288 -369.816 -31.5187 6.45179
lowerback 1.27384 0.132183 -3.77111
upperback 0.583059 0.12091 -1.69284
thorax -0.120596 0.0528646 0.37641
lowerneck 4.39698 -13.3988 -6.30254
upperneck -1.02885 -18.1364 7.14278
head 0.237925 -9.14627 3.33876
rclavicle 1.78471e-014 -1.66482e-014
rhumerus 5.21104 59.2214 -85.2891
rradius 77.6415
rwrist -33.2383
rhand -15.6223 -10.3499
rfingers 7.12502
rthumb 10.5645 -40.0644
lclavicle 1.78471e-014 -1.66482e-014
lhumerus -52.4924 -4.22002 74.3318
lradius 53.3784
lwrist 57.2918
lhand -29.25 11.2145
lfingers 7.12502
lthumb -2.59311 41.1785
rfemur -30.8816 -1.38136 22.7217
rtibia 63.9661
rfoot -20.6202 -13.7058
rtoes -6.96098
lfemur 1.01653 10.1716 -23.1433
ltibia 25.0608
lfoot -19.5028 3.79498
ltoes -13.0496
673
root 2.5036 16.0375 2.15405 -369.854 -31.6851 6.67009
lowerback 1.20013 0.0149485 -3.99134
upperback 0.524665 -0.0362218 -1.70352
thorax -0.133568 -0.0252786 0.490553
lowerneck 4.36983 -13.4664 -6.37978
upperneck -0.602161 -18.2489 7.06134
head 0.387431 -9.20113 3.29794
rclavicle -5.16157e-014 1.31198e-014
rhumerus 5.94055 58.9419 -84.5801
rradius 78.0932
rwrist -33.8545
rhand -15.0214 -10.36
rfingers 7.12502
rthumb 11.1441 -40.0441
lclavicle -5.16157e-014 1.31198e-014
lhumerus -52.1796 -4.31403 74.2704
lradius 53.3033
lwrist 57.2524
lhand -29.1781 11.3113
lfingers 7.12502
lthumb -2.52371 41.2762
rfemur -31.5128 -1.25393 22.7458
rtibia 61.166
rfoot -21.3373 -14.0732
rtoes -7.61553
lfemur 2.34054 10.2675 -23.1928
ltibia 24.07
lfoot -19.3496 4.13646
ltoes -12.8678
674
root 2.37657 16.043 2.33439 -369.897 -31.8462 6.90825
lowerback 1.12889 -0.102892 -4.24542
upperback 0.458845 -0.194711 -1.70854
thorax -0.15425 -0.103795 0.629157
lowerneck 4.34289 -13.538 -6.46162
upperneck -0.168091 -18.367 6.97446
head 0.539689 -9.25903 3.25579
rclavicle -3.02774e-014 -1.76918e-014
rhumerus 6.701 58.6492 -83.8306
rradius 78.5322
rwrist -34.4197
rhand -14.3375 -10.3654
rfingers 7.12502
rthumb 11.8037 -40.0127
lclavicle -3.02774e-014 -1.76918e-014
lhumerus -51.8991 -4.41218 74.2159
lradius 53.2619
lwrist 57.2103
lhand -29.182 11.3761
lfingers 7.12502
lthumb -2.52748 41.3409
rfemur -32.033 -1.17512 22.74
rtibia 58.2007
rfoot -21.961 -14.4817
rtoes -8.18144
lfemur 3.76025 10.3616 -23.2603
ltibia 22.8879
lfoot -19.1225 4.50748
ltoes -12.8967
675
root 2.24764 16.0495 2.51361 -369.946 -32.0028 7.15238
lowerback 1.06611 -0.221052 -4.51464
upperback 0.388799 -0.35421 -1.7077
thorax -0.182518 -0.182448 0.782001
lowerneck 4.31589 -13.6131 -6.55025
upperneck 0.265801 -18.4902 6.88914
head 0.693297 -9.31981 3.21512
rclavicle 1.05107e-014 1.50082e-014
rhumerus 7.49002 58.3396 -83.0479
rradius 78.9589
rwrist -34.9669
rhand -13.5983 -10.3737
rfingers 7.12502
rthumb 12.5164 -39.9789
lclavicle 1.05107e-014 1.50082e-014
lhumerus -51.6466 -4.52263 74.1627
lradius 53.2551
lwrist 57.1829
lhand -29.1719 11.4209
lfingers 7.12502
lthumb -2.51773 41.3858
rfemur -32.4421 -1.12774 22.7201
rtibia 55.0999
rfoot -22.4315 -14.967
rtoes -8.89503
lfemur 5.26962 10.4483 -23.3306
ltibia 21.5402
lfoot -18.8555 4.85776
ltoes -12.9436
676
root 2.11705 16.0575 2.6909 -369.987 -32.1525 7.38804
lowerback 1.01608 -0.343163 -4.78484
upperback 0.310841 -0.519908 -1.70078
thorax -0.224259 -0.263584 0.941604
lowerneck 4.28984 -13.6898 -6.63917
upperneck 0.697483 -18.6154 6.80652
head 0.846785 -9.382 3.17558
rclavicle -9.69075e-016 6.36111e-015
rhumerus 8.29646 58.0194 -82.2451
rradius 79.3844
rwrist -35.5294
rhand -12.8096 -10.3953
rfingers 7.12502
rthumb 13.2767 -39.9524
lclavicle -9.69075e-016 6.36111e-015
lhumerus -51.4188 -4.6283 74.0956
lradius 53.27
lwrist 57.1616
lhand -29.1295 11.4374
lfingers 7.12502
lthumb -2.4768 41.4028
rfemur -32.7602 -1.07773 22.6898
rtibia 51.9118
rfoot -22.8936 -15.3763
rtoes -9.04496
lfemur 6.85076 10.5282 -23.3981
ltibia 20.0372
lfoot -18.5352 5.20061
ltoes -13.0133
